<svg width="36" height="10" viewBox="0 0 36 10" fill="none" xmlns="http://www.w3.org/2000/svg">
<path d="M0.492 0.599999H1.812V9H0.492V0.599999ZM2.80059 0.599999H4.45659L5.74059 5.628H5.76459V0.599999H6.94059V9H5.58459L4.00059 2.868H3.97659V9H2.80059V0.599999ZM9.08569 4.704L7.63369 0.599999H9.02569L9.91369 3.312H9.93769L10.8497 0.599999H12.0977L10.6457 4.704L12.1697 9H10.7777L9.81769 6.072H9.79369L8.80969 9H7.56169L9.08569 4.704ZM14.4424 9.12C13.8024 9.12 13.3184 8.94 12.9904 8.58C12.6624 8.212 12.4984 7.688 12.4984 7.008V6.528H13.7464V7.104C13.7464 7.648 13.9744 7.92 14.4304 7.92C14.6544 7.92 14.8224 7.856 14.9344 7.728C15.0544 7.592 15.1144 7.376 15.1144 7.08C15.1144 6.728 15.0344 6.42 14.8744 6.156C14.7144 5.884 14.4184 5.56 13.9864 5.184C13.4424 4.704 13.0624 4.272 12.8464 3.888C12.6304 3.496 12.5224 3.056 12.5224 2.568C12.5224 1.904 12.6904 1.392 13.0264 1.032C13.3624 0.664 13.8504 0.48 14.4904 0.48C15.1224 0.48 15.5984 0.664 15.9184 1.032C16.2464 1.392 16.4104 1.912 16.4104 2.592V2.94H15.1624V2.508C15.1624 2.22 15.1064 2.012 14.9944 1.884C14.8824 1.748 14.7184 1.68 14.5024 1.68C14.0624 1.68 13.8424 1.948 13.8424 2.484C13.8424 2.788 13.9224 3.072 14.0824 3.336C14.2504 3.6 14.5504 3.92 14.9824 4.296C15.5344 4.776 15.9144 5.212 16.1224 5.604C16.3304 5.996 16.4344 6.456 16.4344 6.984C16.4344 7.672 16.2624 8.2 15.9184 8.568C15.5824 8.936 15.0904 9.12 14.4424 9.12ZM18.2232 1.8H16.8432V0.599999H20.9232V1.8H19.5432V9H18.2232V1.8ZM23.4234 9.12C22.7754 9.12 22.2794 8.936 21.9354 8.568C21.5914 8.2 21.4194 7.68 21.4194 7.008V2.592C21.4194 1.92 21.5914 1.4 21.9354 1.032C22.2794 0.664 22.7754 0.48 23.4234 0.48C24.0714 0.48 24.5674 0.664 24.9114 1.032C25.2554 1.4 25.4274 1.92 25.4274 2.592V7.008C25.4274 7.68 25.2554 8.2 24.9114 8.568C24.5674 8.936 24.0714 9.12 23.4234 9.12ZM23.4234 7.92C23.8794 7.92 24.1074 7.644 24.1074 7.092V2.508C24.1074 1.956 23.8794 1.68 23.4234 1.68C22.9674 1.68 22.7394 1.956 22.7394 2.508V7.092C22.7394 7.644 22.9674 7.92 23.4234 7.92ZM28.1801 9.12C27.5481 9.12 27.0641 8.94 26.7281 8.58C26.4001 8.22 26.2361 7.712 26.2361 7.056V2.544C26.2361 1.888 26.4001 1.38 26.7281 1.02C27.0641 0.66 27.5481 0.48 28.1801 0.48C28.8121 0.48 29.2921 0.66 29.6201 1.02C29.9561 1.38 30.1241 1.888 30.1241 2.544V3.432H28.8761V2.46C28.8761 1.94 28.6561 1.68 28.2161 1.68C27.7761 1.68 27.5561 1.94 27.5561 2.46V7.152C27.5561 7.664 27.7761 7.92 28.2161 7.92C28.6561 7.92 28.8761 7.664 28.8761 7.152V5.868H30.1241V7.056C30.1241 7.712 29.9561 8.22 29.6201 8.58C29.2921 8.94 28.8121 9.12 28.1801 9.12ZM30.9139 0.599999H32.2339V4.14L33.9139 0.599999H35.2339L33.6619 3.684L35.2579 9H33.8779L32.7619 5.256L32.2339 6.324V9H30.9139V0.599999Z" fill="white"/>
</svg>
